# Blender 3.2.2
# www.blender.org
mtllib tower_model.mtl
o Cylinder
v 0.000000 0.049100 -1.000000
v 0.587785 0.049100 -0.809017
v 0.951057 0.049100 -0.309017
v 0.951056 0.049100 0.309017
v 0.587785 0.049100 0.809017
v -0.000000 0.049100 1.000000
v -0.587785 0.049100 0.809017
v -0.951056 0.049100 0.309017
v -0.951056 0.049100 -0.309017
v -0.587785 0.049100 -0.809017
v 0.000000 2.844374 -0.828338
v 0.000000 2.681114 -1.000000
v 0.486885 2.844374 -0.670139
v 0.587785 2.681114 -0.809017
v 0.787796 2.844374 -0.255970
v 0.951057 2.681114 -0.309017
v 0.787796 2.844374 0.255970
v 0.951056 2.681114 0.309017
v 0.486885 2.844374 0.670139
v 0.587785 2.681114 0.809017
v -0.000000 2.844374 0.828338
v -0.000000 2.681114 1.000000
v -0.486885 2.844374 0.670139
v -0.587785 2.681114 0.809017
v -0.787796 2.844374 0.255971
v -0.951056 2.681114 0.309017
v -0.787796 2.844374 -0.255971
v -0.951056 2.681114 -0.309017
v -0.486885 2.844374 -0.670139
v -0.587785 2.681114 -0.809017
v 0.486885 3.108761 -0.670139
v 0.587785 2.945500 -0.809017
v 0.000000 2.945500 -1.000000
v 0.000000 3.108761 -0.828338
v 0.787796 3.108761 -0.255970
v 0.951057 2.945500 -0.309017
v 0.787796 3.108761 0.255970
v 0.951056 2.945500 0.309017
v 0.486885 3.108761 0.670139
v 0.587785 2.945500 0.809017
v -0.000000 3.108761 0.828338
v -0.000000 2.945500 1.000000
v -0.486885 3.108761 0.670139
v -0.587785 2.945500 0.809017
v -0.787796 3.108761 0.255971
v -0.951056 2.945500 0.309017
v -0.787796 3.108761 -0.255971
v -0.951056 2.945500 -0.309017
v -0.486885 3.108761 -0.670139
v -0.587785 2.945500 -0.809017
v 0.486885 3.748093 -0.670139
v 0.587785 3.584833 -0.809017
v 0.000000 3.584833 -1.000000
v 0.000000 3.748093 -0.828338
v 0.787796 3.748093 -0.255970
v 0.951057 3.584833 -0.309017
v 0.787796 3.748093 0.255970
v 0.951056 3.584833 0.309017
v 0.486885 3.748093 0.670139
v 0.587785 3.584833 0.809017
v -0.000000 3.748093 0.828338
v -0.000000 3.584833 1.000000
v -0.486885 3.748093 0.670139
v -0.587785 3.584833 0.809017
v -0.787796 3.748093 0.255971
v -0.951056 3.584833 0.309017
v -0.787796 3.748093 -0.255971
v -0.951056 3.584833 -0.309017
v -0.486885 3.748093 -0.670139
v -0.587785 3.584833 -0.809017
vn -0.3090 -0.0000 -0.9511
vn 1.0000 -0.0000 -0.0000
vn 0.8090 -0.0000 0.5878
vn 0.3090 -0.0000 0.9511
vn -0.3090 -0.0000 0.9511
vn -0.8090 -0.0000 0.5878
vn -1.0000 -0.0000 -0.0000
vn -0.8090 -0.0000 -0.5878
vn 0.3090 -0.0000 -0.9511
vn 0.8090 -0.0000 -0.5878
vn -0.0000 -1.0000 -0.0000
vn -0.0000 1.0000 -0.0000
vn 0.2185 0.7071 -0.6725
vn 0.7071 0.7071 -0.0000
vn 0.2185 0.7071 0.6725
vn -0.5721 0.7071 0.4156
vn -0.5721 0.7071 -0.4156
vn 0.5721 0.7071 -0.4156
vn 0.5721 0.7071 0.4156
vn -0.2185 0.7071 0.6725
vn -0.7071 0.7071 -0.0000
vn -0.2185 0.7071 -0.6725
vt -0.000000 0.500000
vt 1.000000 0.500000
vt 0.750000 0.490000
vt 0.900000 0.500000
vt 0.891068 0.444164
vt 0.800000 0.500000
vt 0.978254 0.324164
vt 0.700000 0.500000
vt 0.978254 0.175836
vt 0.600000 0.500000
vt 0.891068 0.055836
vt 0.500000 0.500000
vt 0.750000 0.010000
vt 0.400000 0.500000
vt 0.608932 0.055836
vt 0.300000 0.500000
vt 0.521746 0.175836
vt 0.200000 0.500000
vt 0.521746 0.324164
vt 0.100000 0.500000
vt 0.608932 0.444164
vt 0.250000 0.448801
vt -0.000000 0.959185
vt 1.000000 0.959185
vt 0.366852 0.410833
vt 0.900000 0.959185
vt 0.439071 0.311433
vt 0.800000 0.959185
vt 0.439071 0.188567
vt 0.700000 0.959185
vt 0.366852 0.089167
vt 0.600000 0.959185
vt 0.250000 0.051199
vt 0.500000 0.959185
vt 0.133148 0.089167
vt 0.400000 0.959185
vt 0.060929 0.188567
vt 0.300000 0.959185
vt 0.060929 0.311433
vt 0.200000 0.959185
vt 0.133148 0.410833
vt 0.100000 0.959185
vt 0.366852 0.410833
vt 0.391068 0.444164
vt 0.900000 0.959185
vt 1.000000 0.959185
vt 0.250000 0.490000
vt -0.000000 0.959185
vt 0.250000 0.448801
vt 0.439071 0.311433
vt 0.478254 0.324164
vt 0.800000 0.959185
vt 0.439071 0.188567
vt 0.478254 0.175836
vt 0.700000 0.959185
vt 0.366852 0.089167
vt 0.391068 0.055836
vt 0.600000 0.959185
vt 0.250000 0.051199
vt 0.500000 0.959185
vt 0.250000 0.010000
vt 0.133148 0.089167
vt 0.108932 0.055836
vt 0.400000 0.959185
vt 0.060929 0.188567
vt 0.300000 0.959185
vt 0.021746 0.175836
vt 0.060929 0.311433
vt 0.021746 0.324164
vt 0.200000 0.959185
vt 0.133148 0.410833
vt 0.108932 0.444164
vt 0.100000 0.959185
vt 0.366852 0.410833
vt 0.391068 0.444164
vt 0.900000 0.959185
vt 0.250000 0.490000
vt -0.000000 0.959185
vt 0.250000 0.448801
vt 0.439071 0.311433
vt 0.478254 0.324164
vt 0.800000 0.959185
vt 0.439071 0.188567
vt 0.478254 0.175836
vt 0.700000 0.959185
vt 0.366852 0.089167
vt 0.391068 0.055836
vt 0.600000 0.959185
vt 0.250000 0.051199
vt 0.500000 0.959185
vt 0.250000 0.010000
vt 0.133148 0.089167
vt 0.108932 0.055836
vt 0.400000 0.959185
vt 0.060929 0.188567
vt 0.300000 0.959185
vt 0.021746 0.175836
vt 0.060929 0.311433
vt 0.200000 0.959185
vt 0.021746 0.324164
vt 0.133148 0.410833
vt 0.108932 0.444164
vt 0.100000 0.959185
s 0
usemtl Material.001
f 10/20/1 30/42/1 12/23/1 1/1/1
f 3/6/2 16/28/2 18/30/2 4/8/2
f 4/8/3 18/30/3 20/32/3 5/10/3
f 5/10/4 20/32/4 22/34/4 6/12/4
f 6/12/5 22/34/5 24/36/5 7/14/5
f 7/14/6 24/36/6 26/38/6 8/16/6
f 8/16/7 26/38/7 28/40/7 9/18/7
f 9/18/8 28/40/8 30/42/8 10/20/8
f 1/2/9 12/24/9 14/26/9 2/4/9
f 2/4/10 14/26/10 16/28/10 3/6/10
f 1/3/11 2/5/11 3/7/11 4/9/11 5/11/11 6/13/11 7/15/11 8/17/11 9/19/11 10/21/11
f 13/25/6 15/27/6 35/50/6 31/43/6
f 12/23/1 30/42/1 50/73/1 33/48/1
f 26/38/6 24/36/6 44/64/6 46/66/6
f 16/28/10 14/26/10 32/45/10 36/52/10
f 27/39/3 29/41/3 49/71/3 47/68/3
f 17/29/8 19/31/8 39/56/8 37/53/8
f 30/42/8 28/40/8 48/70/8 50/73/8
f 20/32/3 18/30/3 38/55/3 40/58/3
f 21/33/9 23/35/9 43/62/9 41/59/9
f 11/22/5 13/25/5 31/43/5 34/49/5
f 13/25/12 11/22/12 29/41/12 27/39/12 25/37/12 23/35/12 21/33/12 19/31/12 17/29/12 15/27/12
f 32/44/13 33/47/13 34/49/13 31/43/13
f 48/70/7 46/66/7 66/96/7 68/99/7
f 38/54/14 36/51/14 35/50/14 37/53/14
f 32/44/8 31/43/8 51/74/8 52/75/8
f 42/61/15 40/57/15 39/56/15 41/59/15
f 47/68/9 48/69/9 68/100/9 67/98/9
f 46/67/16 44/63/16 43/62/16 45/65/16
f 38/54/9 37/53/9 57/83/9 58/84/9
f 50/72/17 48/69/17 47/68/17 49/71/17
f 49/71/4 34/49/4 54/79/4 69/101/4
f 23/35/10 25/37/10 45/65/10 43/62/10
f 22/34/4 20/32/4 40/58/4 42/60/4
f 29/41/4 11/22/4 34/49/4 49/71/4
f 19/31/1 21/33/1 41/59/1 39/56/1
f 18/30/2 16/28/2 36/52/2 38/55/2
f 28/40/7 26/38/7 46/66/7 48/70/7
f 14/26/9 12/24/9 33/46/9 32/45/9
f 15/27/7 17/29/7 37/53/7 35/50/7
f 25/37/2 27/39/2 47/68/2 45/65/2
f 24/36/5 22/34/5 42/60/5 44/64/5
f 56/81/18 52/75/18 51/74/18 55/80/18
f 60/87/19 58/84/19 57/83/19 59/86/19
f 64/93/20 62/91/20 61/89/20 63/92/20
f 68/100/21 66/97/21 65/95/21 67/98/21
f 53/77/22 70/102/22 69/101/22 54/79/22
f 43/62/8 44/63/8 64/93/8 63/92/8
f 45/65/2 47/68/2 67/98/2 65/95/2
f 34/49/2 33/47/2 53/77/2 54/79/2
f 44/64/5 42/60/5 62/90/5 64/94/5
f 39/56/6 40/57/6 60/87/6 59/86/6
f 50/72/6 49/71/6 69/101/6 70/102/6
f 41/59/9 43/62/9 63/92/9 61/89/9
f 40/58/3 38/55/3 58/85/3 60/88/3
f 35/50/4 36/51/4 56/81/4 55/80/4
f 46/67/4 45/65/4 65/95/4 66/97/4
f 37/53/8 39/56/8 59/86/8 57/83/8
f 36/52/10 32/45/10 52/76/10 56/82/10
f 42/61/2 41/59/2 61/89/2 62/91/2
f 33/48/1 50/73/1 70/103/1 53/78/1
f 31/43/6 35/50/6 55/80/6 51/74/6
